<?xml version="1.0" standalone="no"?>
<!DOCTYPE svg PUBLIC "-//W3C//DTD SVG 20010904//EN"
 "http://www.w3.org/TR/2001/REC-SVG-20010904/DTD/svg10.dtd">
<svg version="1.0" xmlns="http://www.w3.org/2000/svg"
 width="512.000000pt" height="512.000000pt" viewBox="0 0 512.000000 512.000000"
 preserveAspectRatio="xMidYMid meet">
<metadata>
Created by potrace 1.11, written by Peter Selinger 2001-2013
</metadata>
<g transform="translate(0.000000,512.000000) scale(0.100000,-0.100000)"
fill="#000000" stroke="none">
<path d="M4478 4930 c-54 -84 -387 -644 -385 -647 2 -1 50 10 108 26 57 16
176 48 264 71 88 23 163 44 166 48 6 6 -110 457 -130 507 -7 18 -8 18 -23 -5z"/>
<path d="M4099 4858 l-146 -40 -201 -337 c-110 -185 -199 -337 -197 -339 1 -1
54 11 116 28 63 17 132 35 154 41 39 10 43 15 230 326 228 378 220 363 203
362 -7 -1 -79 -19 -159 -41z"/>
<path d="M3690 4749 c-19 -5 -49 -14 -67 -19 -18 -6 -42 -13 -55 -15 -13 -3
-52 -12 -88 -21 l-65 -17 -202 -336 c-111 -185 -200 -338 -198 -340 4 -3 204
47 282 71 31 9 65 58 178 256 14 24 141 238 174 292 51 84 83 140 79 139 -1 0
-19 -5 -38 -10z"/>
<path d="M3015 4571 l-140 -38 -203 -337 c-112 -186 -202 -339 -200 -341 1 -2
72 16 157 38 l153 42 204 338 c145 240 199 337 186 336 -9 -1 -80 -18 -157
-38z"/>
<path d="M2580 4454 c-25 -8 -54 -16 -66 -18 -11 -2 -57 -14 -102 -26 l-82
-22 -35 -62 c-60 -104 -353 -587 -367 -603 -12 -15 -10 -15 17 -9 17 4 37 9
45 11 42 8 218 56 236 64 12 5 57 69 103 148 45 76 127 212 182 303 146 241
140 230 126 229 -7 0 -32 -7 -57 -15z"/>
<path d="M2030 4309 c-36 -10 -74 -21 -85 -23 -126 -29 -155 -42 -172 -72 -10
-17 -85 -142 -168 -278 -82 -136 -158 -261 -168 -279 -11 -18 -28 -46 -38 -64
l-20 -31 88 24 c48 14 117 32 153 41 36 8 72 23 81 32 9 9 99 153 199 321 101
168 190 315 198 328 17 26 17 26 -68 1z"/>
<path d="M1559 4186 c-2 -2 -69 -21 -149 -41 -80 -21 -150 -42 -157 -47 -9 -7
-93 -141 -138 -221 -5 -10 -66 -111 -135 -225 -69 -114 -126 -212 -128 -219
-2 -8 18 -6 70 8 40 12 80 22 88 25 8 2 45 11 82 20 l66 17 54 89 c29 49 58
97 63 106 31 53 271 451 283 470 13 19 13 30 1 18z"/>
<path d="M940 4021 c-81 -23 -340 -92 -360 -96 -71 -16 -245 -66 -251 -72 -5
-6 125 -513 136 -530 0 -1 35 7 77 19 l77 21 163 271 c90 149 168 280 174 291
6 11 22 39 37 62 39 62 42 60 -53 34z"/>
<path d="M538 3202 l-58 -3 0 -239 0 -238 126 -1 125 -1 240 240 240 240 -88
0 c-48 1 -187 2 -308 3 -121 1 -246 1 -277 -1z"/>
<path d="M1454 3202 c-11 -2 -127 -110 -259 -242 l-237 -239 167 0 167 0 235
235 c130 129 233 237 231 239 -5 5 -274 11 -304 7z"/>
<path d="M2029 3202 c-32 -3 -61 -28 -274 -243 l-239 -239 169 1 169 1 234
235 c129 129 232 236 230 238 -6 6 -239 11 -289 7z"/>
<path d="M2610 3202 l-55 -3 -232 -232 c-128 -127 -233 -235 -233 -239 0 -4
73 -7 161 -7 l162 0 234 235 c130 129 233 237 231 239 -6 6 -196 11 -268 7z"/>
<path d="M3149 3202 c-31 -3 -61 -29 -273 -241 l-239 -239 168 0 167 0 240
239 240 239 -49 0 c-26 1 -86 2 -133 3 -47 1 -101 1 -121 -1z"/>
<path d="M3815 3202 l-140 -2 -232 -233 c-128 -127 -233 -235 -233 -239 0 -4
73 -7 162 -6 l162 0 237 238 c274 273 269 247 44 242z"/>
<path d="M4315 3202 l-80 -3 -232 -232 c-128 -127 -233 -235 -233 -239 0 -4
73 -7 162 -7 l162 2 233 233 c128 128 233 235 233 237 0 7 -147 13 -245 9z"/>
<path d="M4556 2961 l-238 -239 241 0 241 0 0 239 c0 131 -1 239 -3 239 -1 0
-110 -107 -241 -239z"/>
<path d="M512 2562 l-32 -3 2 -1082 3 -1082 25 -49 c34 -67 92 -123 159 -155
l56 -26 1902 -2 c1720 -2 1907 -1 1950 14 62 20 115 59 157 114 70 91 66 26
66 1206 l0 1063 -32 1 c-157 2 -4231 3 -4256 1z m3772 -336 c46 -29 41 -110
-7 -134 -15 -8 -171 -11 -510 -9 l-487 2 2 -360 3 -360 488 -2 c539 -2 528 -1
542 -64 9 -39 -9 -74 -44 -88 -36 -15 -3225 -14 -3263 0 -53 21 -61 103 -13
135 22 14 81 16 515 16 l490 0 -2 360 -3 360 -497 1 -496 2 -21 24 c-35 40
-21 104 28 124 22 9 402 12 1640 10 1427 -1 1615 -3 1635 -17z m-4 -1436 c48
-26 49 -110 1 -134 -22 -12 -281 -14 -1652 -13 -1530 2 -1626 3 -1643 19 -27
28 -31 79 -8 108 16 20 32 26 78 30 33 3 766 4 1631 3 1138 -1 1578 -5 1593
-13z"/>
<path d="M2164 2081 c-2 -2 -4 -165 -4 -362 l0 -358 480 1 480 0 0 359 0 359
-37 1 c-214 3 -916 3 -919 0z"/>
</g>
</svg>
